<?xml version="1.0" encoding="utf-8"?>
<!-- Generator: Adobe Illustrator 22.0.0, SVG Export Plug-In . SVG Version: 6.00 Build 0)  -->
<svg version="1.1" id="Capa_1" xmlns="http://www.w3.org/2000/svg" xmlns:xlink="http://www.w3.org/1999/xlink" x="0px" y="0px"
	 viewBox="0 0 512 512" style="enable-background:new 0 0 512 512;" xml:space="preserve">
<style type="text/css">
	.st0{fill:#FFFFFF;}
	.st1{fill:#FF5274;}
</style>
<circle class="st0" cx="256" cy="299" r="255.7"/>
<g>
	<g>
		<g>
			<path class="st1" d="M256,43.3c-141.4,0-256,114.6-256,256c0,61.6,21.8,118.1,58,162.3c5.6-44.8,50.3-82.7,113.1-100.6
				c22.9,21.4,52.5,34.3,84.9,34.3c31.6,0,60.6-12.3,83.3-32.8c63.3,19.5,107.1,59.6,108.5,106.2c39.9-45.1,64.2-104.4,64.2-169.5
				C512,157.9,397.4,43.3,256,43.3z M256,365c-16.3,0-31.7-4.5-45.4-12.3c-33-18.8-55.6-57.1-55.6-101.4
				c0-62.7,45.3-113.7,101.1-113.7c55.7,0,101.1,51,101.1,113.7c0,45-23.4,83.8-57.2,102.2C286.6,360.8,271.7,365,256,365z"/>
		</g>
	</g>
</g>
</svg>
